<svg width="46" height="41" viewBox="0 0 46 41" fill="none" xmlns="http://www.w3.org/2000/svg">
<path fill-rule="evenodd" clip-rule="evenodd" d="M0.202721 34.1312L18.3978 0.816011C19.0041 -0.294194 20.6081 -0.265621 21.1745 0.865472L28.7767 16.0465C29.1327 16.7574 28.8999 17.6223 28.2352 18.0585L24.9055 20.2436C24.1012 20.7714 23.0155 20.4566 22.6183 19.5804L21.3376 16.7552C20.7695 15.5021 18.9779 15.5368 18.4588 16.811L14.2697 27.0931C14.162 27.3576 13.9841 27.5876 13.7551 27.7582L2.51492 36.1388C1.16622 37.1444 -0.603648 35.6077 0.202721 34.1312ZM43.5183 20.1938C41.0741 17.0206 38.2867 12.0892 45.4795 6.54884C41.6716 9.48194 36.8373 11.5202 31.6228 4.75046C33.9016 7.7089 37.6436 12.567 29.4294 18.9116L28.9471 18.2854L3.54517 36.5688C3.3501 36.7092 3.18994 36.8926 3.07707 37.1047L2.5527 38.0905C1.99742 39.1344 2.75396 40.3937 3.93632 40.3937L4.78391 40.3937C5.15585 40.3937 5.51566 40.2614 5.79903 40.0205L29.9035 19.527L29.4294 18.9116C33.8614 15.5007 37.9896 13.0161 43.5183 20.1938ZM38.9398 40.5116L25.5181 26.3512C24.8888 25.6872 24.9595 24.6277 25.6714 24.0533L29.2953 21.1296C30.1228 20.462 31.3608 20.7946 31.7422 21.787L38.9398 40.5116Z" fill="#EAB15A"/>
</svg>
